<?xml version="1.0" encoding="UTF-8"?>
<svg xmlns="http://www.w3.org/2000/svg" viewBox="0 0 1200 630" width="1200" height="630">
  <defs>
    <linearGradient id="g53374" x1="96.67902132486009%" y1="32.08160252273499%" x2="3.320978675139912%" y2="67.91839747726502%">
      <stop offset="0%" stop-color="#7C3AED"/>
      <stop offset="100%" stop-color="#6D28D9"/>
    </linearGradient>
  </defs>
  <rect width="1200" height="630" fill="url(#g53374)"/>
  <path d="M 975.8148846868426 177.46484939940274 L 800.487789476756 177.46484939940274 L 800.487789476756 283.63007542677224" fill="none" stroke="rgba(255,255,255,0.1462922103330493)" stroke-width="2"/><circle cx="975.8148846868426" cy="177.46484939940274" r="4" fill="rgba(255,255,255,0.15)"/><path d="M 971.1634285468608 378.7031450262293 L 773.8281799014658 378.7031450262293 L 773.8281799014658 420.65905903931707" fill="none" stroke="rgba(255,255,255,0.07267062436789275)" stroke-width="2"/><circle cx="971.1634285468608" cy="378.7031450262293" r="4" fill="rgba(255,255,255,0.15)"/><path d="M 620.9137392416596 83.74156881589442 L 460.8512033126317 83.74156881589442 L 460.8512033126317 -18.323865509591997" fill="none" stroke="rgba(255,255,255,0.11684612683951856)" stroke-width="2"/><circle cx="620.9137392416596" cy="83.74156881589442" r="4" fill="rgba(255,255,255,0.15)"/><path d="M 768.8394192792475 324.65376375010237 L 583.649335463997 324.65376375010237 L 583.649335463997 386.0029642819427" fill="none" stroke="rgba(255,255,255,0.09749988486990332)" stroke-width="2"/><circle cx="768.8394192792475" cy="324.65376375010237" r="4" fill="rgba(255,255,255,0.15)"/><path d="M 146.7838880326599 541.4888013806194 L 260.58288250584155 541.4888013806194 L 260.58288250584155 640.4169562179595" fill="none" stroke="rgba(255,255,255,0.10725940523669125)" stroke-width="2"/><circle cx="146.7838880326599" cy="541.4888013806194" r="4" fill="rgba(255,255,255,0.15)"/><text x="563.6784803122282" y="241.86555431224406" font-family="monospace" font-size="120" fill="rgba(255,255,255,0.07)">&lt;/&gt;</text><text x="579.9097982421517" y="409.3909524194896" font-family="monospace" font-size="28.157218486070633" fill="rgba(255,255,255,0.10261342437937856)">0</text><text x="716.2653762288392" y="467.7504765894264" font-family="monospace" font-size="42.972705620341" fill="rgba(255,255,255,0.05453854661434889)">1</text><text x="269.0318926423788" y="336.1600433359854" font-family="monospace" font-size="23.18220951873809" fill="rgba(255,255,255,0.08142667695879936)">0</text><text x="85.04434447735548" y="418.6789380433038" font-family="monospace" font-size="31.497328897938132" fill="rgba(255,255,255,0.12993224244564772)">0</text><text x="649.8850474506617" y="191.31358748301864" font-family="monospace" font-size="41.269201894290745" fill="rgba(255,255,255,0.09685884399339557)">1</text><text x="295.89282151311636" y="311.2870881217532" font-family="monospace" font-size="25.588766803964972" fill="rgba(255,255,255,0.05135932698845864)">1</text><text x="557.8679091483355" y="257.40810656221583" font-family="monospace" font-size="37.58223930746317" fill="rgba(255,255,255,0.054370199032127864)">0</text><rect x="990.3595703653991" y="377.2252038354054" width="16" height="16" rx="2" fill="rgba(255,255,255,0.1)"/><rect x="1010.3595703653991" y="377.2252038354054" width="16" height="16" rx="2" fill="rgba(255,255,255,0.1)"/><rect x="1030.3595703653991" y="377.2252038354054" width="16" height="16" rx="2" fill="rgba(255,255,255,0.1)"/><rect x="1050.3595703653991" y="377.2252038354054" width="16" height="16" rx="2" fill="rgba(255,255,255,0.1)"/><rect x="1070.3595703653991" y="377.2252038354054" width="16" height="16" rx="2" fill="rgba(255,255,255,0.04)"/><rect x="990.3595703653991" y="397.2252038354054" width="16" height="16" rx="2" fill="rgba(255,255,255,0.04)"/><rect x="1010.3595703653991" y="397.2252038354054" width="16" height="16" rx="2" fill="rgba(255,255,255,0.1)"/><rect x="1030.3595703653991" y="397.2252038354054" width="16" height="16" rx="2" fill="rgba(255,255,255,0.04)"/><rect x="1050.3595703653991" y="397.2252038354054" width="16" height="16" rx="2" fill="rgba(255,255,255,0.1)"/><rect x="1070.3595703653991" y="397.2252038354054" width="16" height="16" rx="2" fill="rgba(255,255,255,0.1)"/><rect x="990.3595703653991" y="417.2252038354054" width="16" height="16" rx="2" fill="rgba(255,255,255,0.04)"/><rect x="1010.3595703653991" y="417.2252038354054" width="16" height="16" rx="2" fill="rgba(255,255,255,0.04)"/><rect x="1030.3595703653991" y="417.2252038354054" width="16" height="16" rx="2" fill="rgba(255,255,255,0.04)"/><rect x="1050.3595703653991" y="417.2252038354054" width="16" height="16" rx="2" fill="rgba(255,255,255,0.1)"/><rect x="1070.3595703653991" y="417.2252038354054" width="16" height="16" rx="2" fill="rgba(255,255,255,0.1)"/>
  <circle cx="416.15858897566795" cy="68.28325813170522" r="1.2774246837943792" fill="rgba(255,255,255,0.046045100137125705)"/><circle cx="735.301055945456" cy="168.36962282191962" r="2.253124710172415" fill="rgba(255,255,255,0.0452103288215585)"/><circle cx="16.600928083062172" cy="424.4817551644519" r="2.019783574156463" fill="rgba(255,255,255,0.07277357986429706)"/><circle cx="479.34192325919867" cy="479.8728661984205" r="1.5895705725997686" fill="rgba(255,255,255,0.07623017990961671)"/><circle cx="154.4052162207663" cy="253.60906240995973" r="2.7149729398079216" fill="rgba(255,255,255,0.03806132445577532)"/><circle cx="297.59042244404554" cy="4.858416575007141" r="2.1482796845957637" fill="rgba(255,255,255,0.07084860261064023)"/><circle cx="1140.9863322973251" cy="598.424770210404" r="2.428935802076012" fill="rgba(255,255,255,0.07539152887882665)"/><circle cx="503.33845568820834" cy="542.0819398993626" r="1.5930401268415153" fill="rgba(255,255,255,0.05298815257381648)"/><circle cx="231.10396452248096" cy="553.9701279276051" r="2.3872121507301927" fill="rgba(255,255,255,0.052229311603587125)"/><circle cx="419.8317797854543" cy="505.50441114697605" r="2.5745063461363316" fill="rgba(255,255,255,0.06356484486721456)"/><circle cx="34.446636121720076" cy="450.0926849478856" r="2.330072212498635" fill="rgba(255,255,255,0.07244478589389473)"/><circle cx="204.8799365758896" cy="263.08616971364245" r="1.245955211110413" fill="rgba(255,255,255,0.07762793264817447)"/>
  <text x="600" y="335" font-family="system-ui, -apple-system, 'Segoe UI', sans-serif" font-size="68" font-weight="700" fill="rgba(0,0,0,0.15)" text-anchor="middle" letter-spacing="1">Comptia Network</text>
  <text x="600" y="332" font-family="system-ui, -apple-system, 'Segoe UI', sans-serif" font-size="68" font-weight="700" fill="white" text-anchor="middle" letter-spacing="1">Comptia Network</text>
  <g transform="translate(1140, 575)">
    <rect x="0" y="0" width="40" height="40" rx="8" fill="rgba(255,255,255,0.15)"/>
    <text x="20" y="29" font-family="sans-serif" font-weight="bold" font-size="24" fill="rgba(255,255,255,0.6)" text-anchor="middle">K</text>
  </g>
</svg>